#N canvas 1709 720 812 608 12;
#X obj 130 43 bng 15 250 50 0 empty empty empty 17 7 0 10 -262144 -1
-1;
#X obj 131 62 random 2000;
#X obj 129 138 osc~;
#X obj 128 168 libPdOut;
#X obj 129 106 *~ 0.2;
#X obj 9 6 receive randomFreq;
#X connect 0 0 1 0;
#X connect 1 0 4 0;
#X connect 2 0 3 0;
#X connect 4 0 2 0;
#X connect 5 0 0 0;
