#N canvas 23 30 1654 1298 10;
#X obj 21 247 *~;
#X msg 261 206 \$1 10;
#X obj 261 228 line~;
#X obj 246 257 *~;
#X obj 246 282 dac~;
#X obj 36 218 adc~, f 6;
#X obj 21 282 dac~, f 6;
#X obj 54 247 *~;
#X text 21 321 by sam bilbow 2021 www.sambilbow.com;
#X obj 21 86 inlet~;
#X text 65 283 send audio to unity;
#X text 80 219 spatializer fix;
#X text 282 275 send audio to pd;
#X text 67 87 signal;
#X obj 262 131 tgl 15 0 empty empty empty 17 7 0 10 -262144 -1 -1 0
1;
#X text 22 22 libPdOutput.pd - patch for testing audio in puredata
\, and fixing spatialisation in unity;
#X obj 262 116 cnv 5 5 5 empty empty LIBPD/UNITY 0 0 0 12 -262144 -66577
0;
#X obj 261 102 cnv 5 5 5 empty empty IN 0 0 0 8 -262144 -66577 0;
#X text 280 130 enable patch audio;
#X obj 424 107 vu 15 80 \$0-libpd-r empty -1 -8 0 10 -66577 -1 1 0
;
#X obj 163 120 env~;
#X obj 163 143 - 96;
#X obj 163 165 s \$0-libpd-r;
#X connect 0 0 6 0;
#X connect 1 0 2 0;
#X connect 2 0 3 1;
#X connect 3 0 4 0;
#X connect 3 0 4 1;
#X connect 5 0 0 1;
#X connect 5 1 7 1;
#X connect 7 0 6 1;
#X connect 9 0 3 0;
#X connect 9 0 0 0;
#X connect 9 0 7 0;
#X connect 9 0 20 0;
#X connect 14 0 1 0;
#X connect 20 0 21 0;
#X connect 21 0 22 0;
#X coords 0 -1 1 1 220 110 2 255 92;
